<svg version="1.2" xmlns="http://www.w3.org/2000/svg" viewBox="350.99999999999994 496 543 239" width="544" height="239">
	<defs>
		<linearGradient id="g1" x2="1" gradientUnits="userSpaceOnUse" gradientTransform="matrix(419,0,0,84.97,417,0)">
			<stop offset="0" stop-color="#4862b6" stop-opacity=".45"/>
			<stop offset=".08" stop-color="#3d6bf0"/>
			<stop offset=".28" stop-color="#1d6ff7"/>
			<stop offset=".5" stop-color="#2c86ff"/>
			<stop offset=".68" stop-color="#39b3f4"/>
			<stop offset=".9" stop-color="#72ddf1"/>
			<stop offset="1" stop-color="#86c0cf" stop-opacity=".45"/>
		</linearGradient>
		<filter x="-50%" y="-50%" width="200%" height="200%" id="f1"> <feGaussianBlur stdDeviation="7"/> </filter>
	</defs>
	<style>
		.s0 { fill: none;stroke: url(#g1);stroke-linecap: round;stroke-width: 8 }
		.s1 { filter: url(#f1);fill: #2c86ff }
		.s2 { fill: #24292f }
	</style>
	<g id="Layer 1">
		<path class="s0" d="m417 605q206-169 419-2"/>
		<path class="s1" d="m625 532c-7.74 0-14-6.26-14-14 0-7.74 6.26-14 14-14 7.74 0 14 6.26 14 14 0 7.74-6.26 14-14 14z"/>
		<g id="&lt;Group&gt;">
			<path id="Shape 3" fill-rule="evenodd" class="s2" d="m410.94 633.68l35.77 86.32h-12.15l-28.83-71.22-28.72 71.22h-12.21l35.82-86.32h0.37v-0.01h9v0.01z"/>
			<path id="Shape 3" fill-rule="evenodd" class="s2" d="m526.83 720h-11.2v-78.04h-32.2v-8.28h30.45v-0.01h17v0.01h28.21v8.28h-32.26z"/>
			<path id="Shape 3" fill-rule="evenodd" class="s2" d="m515.63 641.96h11.2-11.2z"/>
			<path id="Shape 3" fill-rule="evenodd" class="s2" d="m601.75 720v-86.32h11.38v78.08h0.88 46.28v8.24z"/>
			<path id="Shape 3" fill-rule="evenodd" class="s2" d="m742.94 633.68l35.77 86.32h-12.15l-28.83-71.22-28.72 71.22h-12.21l35.82-86.32h0.37v-0.01h9v0.01z"/>
			<path id="Shape 3" fill-rule="evenodd" class="s2" d="m876.17 698.38q0-3.21-1.17-5.65-1.12-2.55-3.9-4.51-2.75-2.06-7.55-3.79-4.72-1.85-11.91-3.67-7.31-1.88-13.22-4.16-5.86-2.3-10.11-5.22-4.12-3-6.4-6.87-2.16-3.89-2.16-8.96 0-5.02 2.37-9.19 2.38-4.24 6.73-7.29 4.47-3.14 10.51-4.8 6.15-1.78 13.59-1.78 10.79 0 18.42 3.68 7.67 3.55 11.72 9.48 4.1 5.91 4.1 12.82h-11.31q0-5.13-2.63-9.08-2.54-4.02-7.68-6.29-5.03-2.32-12.62-2.32-7.34 0-12.24 1.97-4.81 1.93-7.21 5.27-2.39 3.27-2.39 7.41 0 2.86 1.31 5.22 1.34 2.34 4.18 4.39 2.93 1.96 7.48 3.68 4.65 1.7 11.18 3.28 8.17 2 14.22 4.48 6.06 2.46 10.04 5.58 4.07 3.1 6.06 7.11 2.02 3.98 2.02 9.09 0 5.28-2.49 9.53-2.42 4.22-7.01 7.23-4.46 2.97-10.78 4.62-6.19 1.55-13.78 1.55-6.71 0-13.3-1.55-6.49-1.65-11.86-4.86-5.33-3.3-8.55-8.18-3.2-4.91-3.2-11.51h11.31q0 4.8 2.13 8.19 2.16 3.36 5.79 5.57 3.69 2.1 8.22 3.15 4.63 0.95 9.46 0.95 7.12 0 12.17-1.78 5.07-1.79 7.75-5.04 2.71-3.31 2.71-7.75z"/>
		</g>
	</g>
</svg>
